# xmcd
#
# Track frame offsets:
#	150
#	17440
#	31665
#	49199
#
# Disc length: 889 seconds
#
# Revision: 6
# Processed by: cddbd v1.5.2PL0 Copyright (c) Steve Scherf et al.
# Submitted via: EasyCDDAExtractor 15.3.0.1
#
DISCID=21037704
DTITLE=Anastacia - Resurrection - CD 2
DYEAR=2014
DGENRE=Pop/Rock
TTITLE0=Other Side Of Crazy
TTITLE1=Oncoming Train
TTITLE2=Resurrection
TTITLE3=Left Outside Alone (Part 2)
EXTD=YEAR: 2014
EXTT0=
EXTT1=
EXTT2=
EXTT3=
PLAYORDER=
